<svg width="64" height="64" viewBox="0 0 64 64" fill="none" xmlns="http://www.w3.org/2000/svg">
<path d="M4.06373 15.0197C-1.59932 23.4689 -0.898941 34.4591 3.43139 43.4605C3.53144 43.6764 3.6415 43.8881 3.74756 44.0999L3.94767 44.5047C3.98769 44.5836 4.03171 44.6604 4.07374 44.7372C4.14778 44.8825 4.22382 45.0154 4.29986 45.1566L4.71408 45.8915L4.95021 46.2942L5.43047 47.0727L5.63458 47.4007C5.8607 47.7495 6.09082 48.0982 6.32895 48.4387L6.46502 48.6297C6.6713 48.9238 6.88211 49.2145 7.09736 49.5016L7.33749 49.8171L7.92181 50.5645L8.14593 50.8427C8.41207 51.1686 8.68622 51.4924 8.96037 51.808C8.98838 51.8391 9.00039 51.8495 9.00839 51.862C9.28025 52.1679 9.55643 52.4696 9.83684 52.7671L10.103 53.0453L10.7633 53.7179L11.0335 53.9878C11.3307 54.2785 11.6329 54.5636 11.94 54.8431L12.9325 55.715L13.2727 55.9973L13.9591 56.5537L14.3253 56.8443L15.0957 57.4173L15.4559 57.6809C15.702 57.8574 15.9521 58.0255 16.2043 58.1937L16.5284 58.4179C16.9147 58.6723 17.305 58.92 17.6991 59.1611L18.0232 59.3687L18.9037 59.8794C19.0638 59.9686 19.2279 60.0537 19.39 60.1389L20.0183 60.4772L20.1644 60.5499L20.4245 60.6786L21.4211 61.1561L21.6312 61.2537C22.0159 61.4275 22.4035 61.5943 22.7938 61.754L23.074 61.8702L24.1706 62.2916L24.3106 62.3415C24.7155 62.4861 25.1225 62.6245 25.5313 62.7567L25.8274 62.848C26.2277 62.9788 26.6599 63.1386 27.0881 63.2175C54.4909 68.4012 62.4472 46.1323 62.4472 46.1323C55.7636 55.1669 43.8972 57.5501 32.6311 54.897C32.2049 54.7974 31.7907 54.6604 31.3764 54.5317L31.0643 54.4341C30.6592 54.3049 30.2562 54.1686 29.8556 54.0251L29.6895 53.9628C29.3329 53.8315 28.978 53.6952 28.625 53.5539L28.3248 53.4293C27.938 53.2714 27.5544 53.1053 27.1742 52.9311L26.944 52.8273L25.9735 52.3581L25.6934 52.219C25.4412 52.0945 25.1931 51.9554 24.943 51.8038L24.4427 51.534C24.1385 51.3679 23.8424 51.1893 23.5422 51.0108L23.2381 50.8344C22.8441 50.593 22.4538 50.3453 22.0674 50.0912C21.9614 50.0206 21.8573 49.9458 21.7513 49.8732L20.9188 49.2981C20.8268 49.2359 20.7187 49.1653 20.6507 49.103L19.8622 48.5113L19.512 48.2373L18.8017 47.6602L18.4855 47.3965L17.601 46.6222C17.5689 46.593 17.5355 46.5653 17.501 46.5392L16.5705 45.661L16.3103 45.3995L15.646 44.7144L15.3858 44.4445C15.1057 44.1476 14.8335 43.8487 14.5854 43.5435C14.5714 43.529 14.5574 43.5145 14.5454 43.4979C14.262 43.1752 13.9845 42.8472 13.7129 42.5139L13.5128 42.244L12.9125 41.4759L12.7124 41.1915L12.02 40.2365C5.74063 31.4095 3.49543 19.2069 8.48611 9.20071L4.06373 15.0197ZM21.6532 7.90323C17.555 14.0211 17.7771 22.2274 20.9728 28.6796C21.5083 29.767 22.114 30.8157 22.7858 31.8184C23.4001 32.7319 24.0805 33.8176 24.8949 34.5504C25.1911 34.8888 25.4993 35.2147 25.8154 35.5407L26.0556 35.7898C26.3614 36.0992 26.6743 36.401 26.9941 36.6949C27.0081 36.7053 27.0181 36.7198 27.0341 36.7302C27.3983 37.0623 27.7665 37.353 28.1407 37.681L28.3888 37.8824C28.7643 38.1827 29.1473 38.4728 29.5374 38.7522L29.5715 38.7771C29.7436 38.9017 29.9196 39.0158 30.0957 39.1362C30.1798 39.1923 30.2598 39.2525 30.3439 39.3065C30.6236 39.4927 30.9072 39.6726 31.1943 39.8462L31.3144 39.9189L32.0668 40.3341C32.1549 40.386 32.2669 40.4296 32.3349 40.4794L32.8612 40.7617C32.8872 40.7763 32.9153 40.7866 32.9413 40.7991C33.3022 40.9856 33.6679 41.1621 34.0379 41.3285L34.278 41.4323C34.5761 41.5635 34.8763 41.6895 35.1785 41.8101L35.5627 41.9554C35.8367 42.0587 36.1122 42.1577 36.3891 42.2523L36.7633 42.3768C37.1575 42.5014 37.5638 42.6675 37.958 42.736C59.1154 46.3731 64 29.4498 64 29.4498C59.5976 36.0306 51.073 39.1653 41.9721 36.7157C41.5699 36.6059 41.1702 36.4861 40.7735 36.3565C40.6534 36.3191 40.5334 36.2776 40.4133 36.2361L39.5728 35.9372L39.1726 35.7919C38.8705 35.6709 38.5703 35.545 38.2721 35.414L38.028 35.3102C37.6557 35.1423 37.2874 34.9651 36.9234 34.7788L36.3691 34.4881L36.0489 34.3179C35.8135 34.1853 35.58 34.049 35.3486 33.9089L35.1805 33.8114C34.8942 33.6374 34.6113 33.4574 34.332 33.2716C34.246 33.2156 34.1619 33.1533 34.0759 33.0952L33.5256 32.7173C33.138 32.4387 32.7577 32.1493 32.385 31.8496L32.1248 31.642C28.1227 28.3786 24.985 23.9194 23.4842 18.8664C21.9113 13.6246 22.2495 7.73923 24.975 2.96449L21.6532 7.90323ZM36.4452 2.58459C34.0319 6.2902 33.7917 10.8532 35.4686 14.9262C37.2356 19.2505 40.8575 22.6406 45.0858 24.2681L45.6101 24.4757L45.8422 24.5505L46.5966 24.7581C58.2789 27.0998 61.4446 18.5384 62.2911 17.2783C59.5156 21.424 54.8511 22.4184 49.128 20.9777C48.6757 20.8635 48.1795 20.6933 47.7432 20.5334C47.1834 20.3276 46.6343 20.0913 46.0984 19.8255C45.0812 19.318 44.1152 18.7068 43.2148 18.0008C38.094 13.9713 34.9123 6.26113 38.2541 0" fill="#0868AC"/>
</svg>
