<svg width="64" height="64" viewBox="0 0 35 35" fill="none" xmlns="http://www.w3.org/2000/svg">
<path fill-rule="evenodd" clip-rule="evenodd" d="M34.8308 7.02313L26.985 22.9258L7.09872 34.7342L32.8476 32.9869L34.8308 7.02313Z" fill="url(#paint0_linear_103_16)"/>
<path fill-rule="evenodd" clip-rule="evenodd" d="M24.6484 25.6542L32.8898 32.9692L30.6767 17.6941L24.6484 25.6542Z" fill="url(#paint1_linear_103_16)"/>
<path fill-rule="evenodd" clip-rule="evenodd" d="M7.18486 34.701L32.9197 32.9692L16.7061 31.6964L7.18486 34.701Z" fill="url(#paint2_linear_103_16)"/>
<path fill-rule="evenodd" clip-rule="evenodd" d="M2.34514 23.3409L7.20771 34.7043L11.2581 21.4351L2.34514 23.3409Z" fill="url(#paint3_linear_103_16)"/>
<path fill-rule="evenodd" clip-rule="evenodd" d="M10.2543 21.0976L24.6469 25.6982L20.9199 11.0999L10.2543 21.0976Z" fill="url(#paint4_linear_103_16)"/>
<path fill-rule="evenodd" clip-rule="evenodd" d="M21.0957 12.1476L33.9852 11.3056L23.9032 3.07117L21.0957 12.1476Z" fill="url(#paint5_linear_103_16)"/>
<path fill-rule="evenodd" clip-rule="evenodd" d="M19.5997 0.0914307L29.2703 0.13538L23.3407 3.41226L19.5997 0.0914307Z" fill="url(#paint6_linear_103_16)"/>
<path fill-rule="evenodd" clip-rule="evenodd" d="M0.474654 17.8646L0 27.7919L2.48402 23.2616L0.474654 17.8646Z" fill="url(#paint7_linear_103_16)"/>
<path fill-rule="evenodd" clip-rule="evenodd" d="M0.341048 17.6941L2.36272 23.4286L11.1473 21.4578L21.1766 12.1369L24.007 3.14679L19.5503 0L11.9734 2.83563C9.58626 5.05596 4.95398 9.44915 4.78698 9.53178C4.62173 9.61616 1.72809 15.0852 0.341048 17.6941Z" fill="white"/>
<path fill-rule="evenodd" clip-rule="evenodd" d="M7.43976 7.39237C12.6135 2.26257 19.2833 -0.768188 21.8429 1.81429C24.4009 4.39676 21.6882 10.6728 16.5144 15.8008C11.3407 20.9288 4.75357 24.1266 2.19571 21.5441C-0.363902 18.9634 2.26603 12.5204 7.43976 7.39237V7.39237Z" fill="url(#paint8_linear_103_16)"/>
<path fill-rule="evenodd" clip-rule="evenodd" d="M7.20771 34.6991L11.2264 21.3876L24.573 25.6754C19.7474 30.2004 14.3803 34.0258 7.20771 34.6991Z" fill="url(#paint9_linear_103_16)"/>
<path fill-rule="evenodd" clip-rule="evenodd" d="M21.1942 12.1108L24.6205 25.6824C28.6515 21.4439 32.2695 16.8872 34.0413 11.2511L21.1942 12.1108V12.1108Z" fill="url(#paint10_linear_103_16)"/>
<path fill-rule="evenodd" clip-rule="evenodd" d="M34.0063 11.3197C35.3776 7.18142 35.694 1.24471 29.228 0.142456L23.9224 3.07301L34.0063 11.3197V11.3197Z" fill="url(#paint11_linear_103_16)"/>
<path fill-rule="evenodd" clip-rule="evenodd" d="M0 27.7322C0.189862 34.5621 5.11747 34.6639 7.2165 34.7239L2.368 23.4005L0 27.7322Z" fill="#9E1209"/>
<path fill-rule="evenodd" clip-rule="evenodd" d="M21.2133 12.1318C24.3109 14.0357 30.5537 17.8593 30.6802 17.9296C30.877 18.0404 33.3717 13.7228 33.9378 11.2827L21.2133 12.1318V12.1318Z" fill="url(#paint12_radial_103_16)"/>
<path fill-rule="evenodd" clip-rule="evenodd" d="M11.2212 21.3876L16.5936 31.7527C19.7702 30.0299 22.2578 27.9308 24.5361 25.6824L11.2212 21.3876Z" fill="url(#paint13_radial_103_16)"/>
<path fill-rule="evenodd" clip-rule="evenodd" d="M2.3469 23.4146L1.5857 32.4787C3.02196 34.4406 4.99793 34.6111 7.07059 34.4582C5.57103 30.726 2.57544 23.2634 2.3469 23.4146V23.4146Z" fill="url(#paint14_linear_103_16)"/>
<path fill-rule="evenodd" clip-rule="evenodd" d="M23.8909 3.09582L34.5636 4.59362C33.994 2.17991 32.2448 0.622337 29.2633 0.135376L23.8909 3.09582Z" fill="url(#paint15_linear_103_16)"/>
<defs>
<linearGradient id="paint0_linear_103_16" x1="30.6018" y1="37.8931" x2="23.2539" y2="24.92" gradientUnits="userSpaceOnUse">
<stop stop-color="#FB7655"/>
<stop offset="0.41" stop-color="#E42B1E"/>
<stop offset="0.99" stop-color="#990000"/>
<stop offset="1" stop-color="#990000"/>
</linearGradient>
<linearGradient id="paint1_linear_103_16" x1="34.2621" y1="26.9952" x2="24.7923" y2="20.6404" gradientUnits="userSpaceOnUse">
<stop stop-color="#871101"/>
<stop offset="0.99" stop-color="#911209"/>
<stop offset="1" stop-color="#911209"/>
</linearGradient>
<linearGradient id="paint2_linear_103_16" x1="26.6853" y1="38.2862" x2="17.2158" y2="31.9316" gradientUnits="userSpaceOnUse">
<stop stop-color="#871101"/>
<stop offset="0.99" stop-color="#911209"/>
<stop offset="1" stop-color="#911209"/>
</linearGradient>
<linearGradient id="paint3_linear_103_16" x1="6.80273" y1="22.395" x2="8.27075" y2="31.9357" gradientUnits="userSpaceOnUse">
<stop stop-color="white"/>
<stop offset="0.23" stop-color="#E57252"/>
<stop offset="0.46" stop-color="#DE3B20"/>
<stop offset="0.99" stop-color="#A60003"/>
<stop offset="1" stop-color="#A60003"/>
</linearGradient>
<linearGradient id="paint4_linear_103_16" x1="16.8999" y1="13.4864" x2="17.4408" y2="23.2233" gradientUnits="userSpaceOnUse">
<stop stop-color="white"/>
<stop offset="0.23" stop-color="#E4714E"/>
<stop offset="0.56" stop-color="#BE1A0D"/>
<stop offset="0.99" stop-color="#A80D00"/>
<stop offset="1" stop-color="#A80D00"/>
</linearGradient>
<linearGradient id="paint5_linear_103_16" x1="25.8604" y1="4.48652" x2="27.4797" y2="11.4649" gradientUnits="userSpaceOnUse">
<stop stop-color="white"/>
<stop offset="0.18" stop-color="#E46342"/>
<stop offset="0.4" stop-color="#C82410"/>
<stop offset="0.99" stop-color="#A80D00"/>
<stop offset="1" stop-color="#A80D00"/>
</linearGradient>
<linearGradient id="paint6_linear_103_16" x1="20.9157" y1="2.02899" x2="27.8936" y2="-1.45994" gradientUnits="userSpaceOnUse">
<stop stop-color="white"/>
<stop offset="0.54" stop-color="#C81F11"/>
<stop offset="0.99" stop-color="#BF0905"/>
<stop offset="1" stop-color="#BF0905"/>
</linearGradient>
<linearGradient id="paint7_linear_103_16" x1="0.686192" y1="19.9627" x2="1.26051" y2="25.7127" gradientUnits="userSpaceOnUse">
<stop stop-color="white"/>
<stop offset="0.31" stop-color="#DE4024"/>
<stop offset="0.99" stop-color="#BF190B"/>
<stop offset="1" stop-color="#BF190B"/>
</linearGradient>
<linearGradient id="paint8_linear_103_16" x1="-3.26205" y1="27.2671" x2="23.7354" y2="-0.49376" gradientUnits="userSpaceOnUse">
<stop stop-color="#BD0012"/>
<stop offset="0.07" stop-color="white"/>
<stop offset="0.17" stop-color="white"/>
<stop offset="0.27" stop-color="#C82F1C"/>
<stop offset="0.33" stop-color="#820C01"/>
<stop offset="0.46" stop-color="#A31601"/>
<stop offset="0.72" stop-color="#B31301"/>
<stop offset="0.99" stop-color="#E82609"/>
<stop offset="1" stop-color="#E82609"/>
</linearGradient>
<linearGradient id="paint9_linear_103_16" x1="17.4171" y1="30.0674" x2="9.28523" y2="28.0603" gradientUnits="userSpaceOnUse">
<stop stop-color="#8C0C01"/>
<stop offset="0.54" stop-color="#990C00"/>
<stop offset="0.99" stop-color="#A80D0E"/>
<stop offset="1" stop-color="#A80D0E"/>
</linearGradient>
<linearGradient id="paint10_linear_103_16" x1="31.3845" y1="20.3073" x2="24.1604" y2="13.8325" gradientUnits="userSpaceOnUse">
<stop stop-color="#7E110B"/>
<stop offset="0.99" stop-color="#9E0C00"/>
<stop offset="1" stop-color="#9E0C00"/>
</linearGradient>
<linearGradient id="paint11_linear_103_16" x1="34.0386" y1="8.4273" x2="30.4401" y2="4.58028" gradientUnits="userSpaceOnUse">
<stop stop-color="#79130D"/>
<stop offset="0.99" stop-color="#9E120B"/>
<stop offset="1" stop-color="#9E120B"/>
</linearGradient>
<radialGradient id="paint12_radial_103_16" cx="0" cy="0" r="1" gradientUnits="userSpaceOnUse" gradientTransform="translate(25.2853 13.9563) scale(8.85276)">
<stop stop-color="#A80D00"/>
<stop offset="0.99" stop-color="#7E0E08"/>
<stop offset="1" stop-color="#7E0E08"/>
</radialGradient>
<radialGradient id="paint13_radial_103_16" cx="0" cy="0" r="1" gradientUnits="userSpaceOnUse" gradientTransform="translate(13.0253 25.6228) scale(11.7686)">
<stop stop-color="#A30C00"/>
<stop offset="0.99" stop-color="#800E08"/>
<stop offset="1" stop-color="#800E08"/>
</radialGradient>
<linearGradient id="paint14_linear_103_16" x1="4.68851" y1="34.6913" x2="1.75598" y2="24.7422" gradientUnits="userSpaceOnUse">
<stop stop-color="#8B2114"/>
<stop offset="0.43" stop-color="#9E100A"/>
<stop offset="0.99" stop-color="#B3100C"/>
<stop offset="1" stop-color="#B3100C"/>
</linearGradient>
<linearGradient id="paint15_linear_103_16" x1="27.1856" y1="1.72246" x2="33.76" y2="4.62453" gradientUnits="userSpaceOnUse">
<stop stop-color="#B31000"/>
<stop offset="0.44" stop-color="#910F08"/>
<stop offset="0.99" stop-color="#791C12"/>
<stop offset="1" stop-color="#791C12"/>
</linearGradient>
</defs>
</svg>
