<svg width="70" height="70" viewBox="0 0 70 70" fill="none" xmlns="http://www.w3.org/2000/svg">
<path d="M52.3117 50.8723C52.7712 47.1805 52.6331 46.6419 55.4801 47.2377L56.2046 47.3003C58.3948 47.3955 61.2587 46.9602 62.9698 46.2066C66.592 44.5851 68.7399 41.8755 65.1685 42.5882C57.022 44.2097 56.4301 41.5463 56.4301 41.5463C65.036 29.2221 68.6356 13.5789 65.5265 9.7511C57.0587 -0.695848 42.3979 4.24469 42.1526 4.37527L42.0737 4.38888C40.467 4.06241 38.6911 3.87197 36.6334 3.84477C32.9463 3.79035 30.15 4.77792 28.0246 6.33136C28.0246 6.33136 1.87423 -4.06662 3.08915 19.4091C3.34849 24.404 10.5027 57.2249 19.0438 47.2948C22.1699 43.6656 25.186 40.5995 25.186 40.5995C26.68 41.5599 28.4756 42.0496 30.3558 41.8727L30.5024 41.753C30.459 42.2233 30.4789 42.697 30.5616 43.1623C28.3629 45.5346 29.0112 45.9509 24.6138 46.8242C20.1657 47.7083 22.7816 49.2835 24.4842 49.6971C26.5532 50.1977 31.3396 50.905 34.5756 46.5358L34.4459 47.0336C35.3085 47.7002 35.2493 51.8218 35.3762 54.7655C35.503 57.7091 35.7031 60.4596 36.3261 62.0783C36.9491 63.6971 37.6791 67.8731 43.4578 66.7033C48.2864 65.7048 51.9791 64.2657 52.3174 50.8968" fill="black"/>
<path d="M52.3117 50.8723C52.7712 47.1805 52.6331 46.6419 55.4801 47.2377L56.2046 47.3003C58.3948 47.3955 61.2587 46.9602 62.9698 46.2066C66.592 44.5851 68.7399 41.8755 65.1685 42.5882C57.022 44.2097 56.4301 41.5463 56.4301 41.5463C65.036 29.2221 68.6356 13.5789 65.5265 9.7511C57.0587 -0.695848 42.3979 4.24469 42.1526 4.37527L42.0737 4.38888C40.467 4.06241 38.6911 3.87197 36.6334 3.84477C32.9463 3.79035 30.15 4.77792 28.0246 6.33136C28.0246 6.33136 1.87423 -4.06662 3.08915 19.4091C3.34849 24.404 10.5027 57.2249 19.0438 47.2948C22.1699 43.6656 25.186 40.5995 25.186 40.5995C26.68 41.5599 28.4756 42.0496 30.3558 41.8727L30.5024 41.753C30.459 42.2233 30.4789 42.697 30.5616 43.1623C28.3629 45.5346 29.0112 45.9509 24.6138 46.8242C20.1657 47.7083 22.7816 49.2835 24.4842 49.6971C26.5532 50.1977 31.3396 50.905 34.5756 46.5358L34.4459 47.0336C35.3085 47.7002 35.2493 51.8218 35.3762 54.7655C35.503 57.7091 35.7031 60.4596 36.3261 62.0783C36.9491 63.6971 37.6791 67.8731 43.4578 66.7033C48.2864 65.7048 51.9791 64.2657 52.3174 50.8968" stroke="black" stroke-width="5.3725"/>
<path d="M65.1431 42.6127C56.9966 44.2342 56.4047 41.5707 56.4047 41.5707C65.0106 29.2466 68.6102 13.6034 65.5039 9.77557C57.0361 -0.671376 42.3753 4.27188 42.1301 4.39975L42.0511 4.41335C40.2604 4.06658 38.4399 3.88349 36.6136 3.86652C32.9265 3.81211 30.1302 4.79967 28.0048 6.35311C28.0048 6.35311 1.85164 -4.04487 3.06938 19.4308C3.32871 24.4258 10.4829 57.2466 19.024 47.3166C22.1698 43.6656 25.186 40.5995 25.186 40.5995C26.68 41.5599 28.4756 42.0496 30.3558 41.8727L30.5023 41.753C30.4593 42.2233 30.4792 42.6969 30.5615 43.1623C28.3628 45.5346 29.0112 45.9508 24.6138 46.8241C20.1656 47.7083 22.7815 49.2835 24.4841 49.6971C26.5531 50.1976 31.3395 50.905 34.5756 46.5358L34.4459 47.0336C35.3085 47.7002 35.9117 51.3675 35.8102 54.692C35.7087 58.0165 35.6411 60.2964 36.3176 62.081C36.9941 63.8657 37.6706 67.8758 43.4493 66.706C48.2779 65.7075 50.7782 63.1148 51.1306 58.8C51.3787 55.7313 51.9368 56.1829 51.9763 53.4405L52.4273 52.1401C52.9431 47.9777 52.5118 46.6364 55.4857 47.2622L56.2102 47.3247C58.4004 47.4199 61.2672 46.9847 62.9472 46.2311C66.5694 44.6096 68.7173 41.8999 65.1459 42.6127H65.1431Z" fill="#336791"/>
<path d="M42.1273 4.27189C41.2252 4.54394 56.6838 -1.18283 65.4729 9.65315C68.5736 13.481 64.9796 29.1242 56.3737 41.4483M34.9223 44.9715C34.6968 52.7142 34.9787 60.5113 35.7623 62.383C36.546 64.2548 38.2288 67.9602 44.0102 66.7686C48.8389 65.7701 50.5979 63.8358 51.359 59.5673L53.1433 45.9182L34.9223 44.9715ZM27.9936 6.15724C27.9936 6.15724 1.82348 -4.17 3.04122 19.3057C3.30055 24.3006 10.4548 57.1215 18.9959 47.1914C22.1135 43.5649 24.9323 40.7274 24.9323 40.7274L27.9936 6.15724Z" stroke="white" stroke-width="1.79" stroke-linecap="round" stroke-linejoin="round"/>
<path d="M56.3765 41.4429C56.3765 41.4429 56.9403 44.1091 65.1149 42.4822C68.6864 41.7694 66.5356 44.4791 62.9162 46.1005C59.9451 47.4336 53.2814 47.7737 53.1715 45.9373C52.8896 41.1899 56.6781 42.6318 56.4047 41.4429C56.1566 40.371 54.4597 39.3209 53.3434 36.6983C52.3653 34.413 39.9257 16.8654 56.7937 19.469C57.4138 19.3466 52.3963 3.9618 36.6108 3.73871C20.8253 3.51562 21.3242 22.4698 21.3242 22.4698" stroke="white" stroke-width="1.79" stroke-linecap="round" stroke-linejoin="bevel"/>
<path d="M30.5051 43.0698C28.3064 45.4421 28.9548 45.8583 24.5574 46.7316C20.1093 47.6158 22.7251 49.191 24.4277 49.6045C26.4967 50.1051 31.2831 50.8125 34.5192 46.4405C35.5058 45.1075 34.5135 42.9854 33.1605 42.4468C32.5065 42.1856 31.6327 41.8591 30.5108 43.0725L30.5051 43.0698Z" stroke="white" stroke-width="1.79" stroke-linejoin="round"/>
<path d="M30.3614 43.029C30.1359 41.6333 30.8349 39.9765 31.5819 38.034C32.7038 35.123 35.2915 32.212 33.2225 22.9703C31.6806 16.0873 21.327 21.5365 21.327 22.4697C21.327 23.4028 21.7949 27.2035 21.1579 31.6244C20.3207 37.3974 24.9633 42.2781 30.3078 41.7802" stroke="white" stroke-width="1.79" stroke-linecap="round" stroke-linejoin="round"/>
<path d="M27.8977 22.3309C27.8498 22.6492 28.5038 23.5008 29.3523 23.615C30.2007 23.7293 30.9252 23.0655 30.9731 22.7445C31.021 22.4234 30.367 22.0752 29.5186 21.9609C28.6701 21.8467 27.94 22.0153 27.8977 22.3309V22.3309Z" fill="white" stroke="white" stroke-width="0.5975"/>
<path d="M53.7296 21.6807C53.7747 21.999 53.1235 22.8506 52.2751 22.9648C51.4266 23.0791 50.6965 22.4153 50.6542 22.0942C50.612 21.7732 51.2603 21.425 52.1088 21.3107C52.9572 21.1965 53.6873 21.3651 53.7296 21.6807Z" fill="white" stroke="white" stroke-width="0.2975"/>
<path d="M56.7626 19.4744C56.9036 21.9773 56.2045 23.6776 56.1143 26.3411C55.9846 30.2097 58.0255 34.6388 54.9501 39.0733" stroke="white" stroke-width="1.79" stroke-linecap="round" stroke-linejoin="round"/>
</svg>
