<svg width="16" height="16" viewBox="0 0 269 121" fill="none" xmlns="http://www.w3.org/2000/svg">
<path d="M134.378 23.2276L108.032 49.5736L111.834 53.3752L134.378 30.8307V23.2276Z" fill="#FFB9B7"/>
<path d="M151.126 11.4195C149.978 10.2998 148.016 10.104 146.686 11.4343L134.378 23.7409V30.8308L146.817 18.3921C148.793 16.4157 150.254 14.0219 151.126 11.4195Z" fill="#FF5D5D"/>
<path d="M103.419 49.4157L85.3493 67.4856C82.3038 70.5301 81.8874 75.205 84.0947 78.6982C87.5879 80.9055 92.2628 80.4891 95.3074 77.4436L113.377 59.3738C114.423 58.3278 114.423 56.6329 113.377 55.587L107.206 49.4157C106.16 48.3697 104.465 48.3697 103.419 49.4157V49.4157Z" fill="#898998"/>
<path d="M171.733 57.9807L111.151 118.562L136.269 118.593L184.307 70.555C188.563 66.2984 189.619 60.0551 187.476 54.8115C182.233 52.6689 175.988 53.724 171.733 57.9807V57.9807Z" fill="#FFD0BB"/>
<path d="M171.047 61.5229L183.111 49.4591C185.551 47.0183 189.088 46.3453 192.135 47.4355C191.718 46.2714 191.045 45.1775 190.113 44.2451C186.739 40.8728 181.271 40.8728 177.897 44.2451L165.834 56.3098C163.799 58.3445 163.799 61.6429 165.834 63.6776L170.68 68.5241C170.742 68.586 170.808 68.6404 170.873 68.6986C169.02 66.6529 169.074 63.4957 171.047 61.5229V61.5229Z" fill="white"/>
<path d="M178.048 68.5241L190.113 56.4594C192.553 54.0195 193.226 50.4829 192.135 47.4355C189.088 46.3453 185.551 47.0182 183.111 49.4591L171.047 61.5229C169.075 63.4957 169.02 66.6529 170.873 68.6977C172.918 70.5504 176.075 70.4969 178.048 68.5241V68.5241Z" fill="#FF5D5D"/>
<path d="M115.044 61.0411C117.008 59.0775 117.008 55.8834 115.044 53.9199L114.834 53.7094L148.484 20.0594C152.308 16.2357 154.413 11.1509 154.413 5.74308C154.413 3.50905 153.08 1.51318 151.016 0.658337C148.952 -0.196506 146.598 0.271535 145.018 1.85106L132.713 14.1577C132.712 14.1577 132.712 14.1586 132.711 14.1586L103.997 42.8724L102.525 41.4C101.574 40.4492 100.31 39.9257 98.964 39.9257C97.619 39.9257 96.3542 40.4492 95.4034 41.4L77.3326 59.4699C72.8894 63.914 72.8894 71.145 77.3326 75.5891L80.8554 79.111C83.0082 81.2638 85.8699 82.45 88.9145 82.45C91.9591 82.45 94.8218 81.2647 96.9746 79.111L115.044 61.0411ZM88.9145 77.7345C87.1301 77.7345 85.4518 77.0394 84.1898 75.7765L80.668 72.2547C78.0619 69.6495 78.0619 65.4104 80.668 62.8043L98.7378 44.7345C98.8154 44.6569 98.904 44.6403 98.964 44.6403C99.0249 44.6403 99.1126 44.6569 99.1902 44.7345L111.71 57.2534C111.835 57.3789 111.835 57.5811 111.71 57.7067L93.6402 75.7765C92.3773 77.0394 90.6999 77.7345 88.9145 77.7345ZM149.211 5.01471C149.393 5.09041 149.698 5.2852 149.698 5.74308C149.698 9.89175 148.082 13.7921 145.149 16.725L136.736 25.1386V16.8025L148.353 5.1855C148.677 4.86239 149.03 4.93994 149.211 5.01471V5.01471ZM132.02 29.8541L111.5 50.3749L107.331 46.2069L132.02 21.518V29.8541Z" fill="black"/>
<path d="M150.682 100.846L134.601 116.925C134.142 117.385 133.912 117.988 133.911 118.59C133.91 119.194 134.14 119.799 134.601 120.26C135.062 120.72 135.665 120.951 136.269 120.951C136.871 120.951 137.475 120.72 137.936 120.26L154.016 104.18C154.937 103.259 154.937 101.766 154.016 100.846C153.096 99.9252 151.603 99.9252 150.682 100.846V100.846Z" fill="black"/>
<path d="M156.127 95.399C155.688 95.8375 155.436 96.4458 155.436 97.0653C155.436 97.6856 155.688 98.294 156.127 98.7325L156.128 98.7334C156.566 99.1719 157.174 99.4239 157.796 99.4239C158.416 99.4239 159.024 99.1719 159.463 98.7325C159.901 98.294 160.153 97.6856 160.153 97.0653C160.153 96.4458 159.901 95.8375 159.463 95.399C159.024 94.9605 158.416 94.7084 157.796 94.7084C157.173 94.7075 156.568 94.9605 156.127 95.399Z" fill="black"/>
<path d="M96.9792 116.874C96.9792 116.874 96.9792 116.874 96.9783 116.873C96.5407 116.435 95.9323 116.183 95.312 116.183C94.6916 116.183 94.0832 116.435 93.6447 116.873C93.2062 117.312 92.9542 117.92 92.9542 118.541C92.9542 119.163 93.2062 119.769 93.6447 120.208C94.0832 120.648 94.6916 120.898 95.312 120.898C95.9323 120.898 96.5407 120.648 96.9783 120.208C97.4168 119.77 97.6688 119.166 97.6697 118.544C97.6697 118.543 97.6697 118.542 97.6697 118.541C97.6697 117.92 97.4177 117.313 96.9792 116.874Z" fill="black"/>
<path d="M195 50.3527C195 47.4152 193.856 44.6541 191.78 42.5779C187.493 38.2907 180.517 38.2907 176.231 42.5779L175.303 43.5047C170.581 43.1576 165.739 44.7805 162.136 48.3836L99.8022 110.717C98.8818 111.637 98.8818 113.13 99.8022 114.051C100.263 114.512 100.866 114.742 101.469 114.742C102.073 114.742 102.676 114.511 103.137 114.051L165.47 51.718C166.753 50.4349 168.273 49.4757 169.931 48.8784L164.167 54.6426C162.737 56.0717 161.95 57.9715 161.95 59.9932C161.95 62.0149 162.737 63.9148 164.167 65.3438L169.013 70.1913C170.443 71.6204 172.343 72.4078 174.364 72.4078C176.385 72.4078 178.286 71.6204 179.715 70.1913L185.464 64.4428C184.878 66.0658 183.938 67.589 182.639 68.8878L161.541 89.9866C160.62 90.907 160.62 92.3997 161.541 93.321C162.461 94.2414 163.954 94.2414 164.875 93.321L185.973 72.2223C189.577 68.6192 191.2 63.7772 190.852 59.0544L191.78 58.1266C193.856 56.0504 195 53.2893 195 50.3527V50.3527ZM174.365 67.6924C173.603 67.6924 172.887 67.396 172.348 66.8569L167.501 62.0094C166.962 61.4712 166.665 60.7548 166.665 59.9932C166.665 59.2316 166.962 58.5153 167.501 57.9761L179.566 45.9123C180.789 44.6882 182.397 44.0762 184.005 44.0762C185.613 44.0762 187.221 44.6882 188.446 45.9123C190.894 48.3605 190.894 52.3439 188.446 54.7922L176.381 66.8569C175.843 67.396 175.126 67.6924 174.365 67.6924V67.6924Z" fill="black"/>
<path d="M13.5625 77.7188L57.5781 95.5078V109.289L0.0625 82.6406V72.375L57.5781 45.7969V59.5781L13.5625 77.7188Z" fill="white"/>
<path d="M255.437 73.2813L211.422 55.4922L211.422 41.7109L268.937 68.3594L268.937 78.625L211.422 105.203L211.422 91.4219L255.437 73.2813Z" fill="white"/>
</svg>
